<svg width="9" height="9" viewBox="0 0 9 9" fill="none" xmlns="http://www.w3.org/2000/svg">
<mask id="path-1-inside-1_117_25468" fill="white">
<path fill-rule="evenodd" clip-rule="evenodd" d="M2.04394 8.30212C2.68054 8.65084 3.39868 8.8252 4.19837 8.8252C5.00332 8.8252 5.72146 8.65084 6.35279 8.30212C6.98413 7.9534 7.47867 7.47904 7.83643 6.87904C8.19944 6.27391 8.38095 5.5893 8.38095 4.8252C8.38095 4.13736 8.23387 3.51602 7.93971 2.96116C7.90862 3.0474 7.86978 3.13017 7.82319 3.20948C7.68521 3.44579 7.49447 3.63261 7.25097 3.76995C7.00748 3.90729 6.7305 3.97596 6.42004 3.97596C6.11161 3.97596 5.83463 3.90729 5.5891 3.76995C5.34561 3.63261 5.15284 3.44579 5.0108 3.20948C4.87079 2.97115 4.80078 2.70152 4.80078 2.40058C4.80078 2.09964 4.87079 1.83102 5.0108 1.59471C5.15284 1.35638 5.34561 1.16855 5.5891 1.03121C5.59176 1.02972 5.59442 1.02824 5.59709 1.02677C5.1643 0.892387 4.69806 0.825195 4.19837 0.825195C3.39868 0.825195 2.68054 0.999554 2.04394 1.34827C1.41261 1.69699 0.912803 2.17391 0.544525 2.77904C0.181508 3.37904 0 4.06109 0 4.8252C0 5.5893 0.181508 6.27391 0.544525 6.87904C0.912803 7.47904 1.41261 7.9534 2.04394 8.30212Z"/>
</mask>
<path d="M2.04394 8.30212L1.31869 9.61514L1.3233 9.61767L2.04394 8.30212ZM7.83643 6.87904L6.55013 6.10739L6.54807 6.11084L7.83643 6.87904ZM7.93971 2.96116L9.26498 2.25855L7.67773 -0.735337L6.52859 2.45249L7.93971 2.96116ZM7.82319 3.20948L6.52986 2.44968L6.52785 2.45312L7.82319 3.20948ZM5.5891 3.76995L4.85218 5.07647L4.85682 5.07906L5.5891 3.76995ZM5.0108 3.20948L3.71747 3.96928L3.72129 3.97578L3.72517 3.98224L5.0108 3.20948ZM5.0108 1.59471L3.72228 0.826768L3.7203 0.830101L5.0108 1.59471ZM5.5891 1.03121L4.85685 -0.277929L4.85219 -0.275297L5.5891 1.03121ZM5.59709 1.02677L6.32178 2.3401L9.40533 0.638602L6.0419 -0.405762L5.59709 1.02677ZM2.04394 1.34827L1.3233 0.0327127L1.31869 0.0352543L2.04394 1.34827ZM0.544525 2.77904L-0.736835 1.99921L-0.738859 2.00256L0.544525 2.77904ZM0.544525 6.87904L-0.741771 7.65069L-0.737852 7.65722L-0.733868 7.66371L0.544525 6.87904ZM4.19837 7.3252C3.62438 7.3252 3.15838 7.20228 2.76458 6.98657L1.3233 9.61767C2.2027 10.0994 3.17298 10.3252 4.19837 10.3252V7.3252ZM5.62755 6.9891C5.24312 7.20144 4.77965 7.3252 4.19837 7.3252V10.3252C5.22698 10.3252 6.19979 10.1002 7.07804 9.61514L5.62755 6.9891ZM6.54807 6.11084C6.33098 6.47493 6.03412 6.76453 5.62755 6.9891L7.07804 9.61514C7.93413 9.14227 8.62636 8.48316 9.12479 7.64724L6.54807 6.11084ZM6.88095 4.8252C6.88095 5.34077 6.76179 5.75457 6.55013 6.10739L9.12272 7.65069C9.6371 6.79326 9.88095 5.83782 9.88095 4.8252H6.88095ZM6.61444 3.66377C6.7832 3.98209 6.88095 4.35849 6.88095 4.8252H9.88095C9.88095 3.91624 9.68455 3.04995 9.26498 2.25855L6.61444 3.66377ZM6.52859 2.45249C6.52873 2.45209 6.52899 2.45146 6.52932 2.45074C6.52965 2.45003 6.52988 2.44965 6.52986 2.44968L9.11652 3.96928C9.20989 3.81035 9.28821 3.64354 9.35082 3.46984L6.52859 2.45249ZM6.52785 2.45312C6.52593 2.45641 6.525 2.45753 6.52527 2.45719C6.52555 2.45682 6.52622 2.45603 6.52705 2.45523C6.52786 2.45443 6.52784 2.45457 6.52639 2.45566C6.52489 2.45678 6.52105 2.4595 6.51406 2.46345L7.98789 5.07646C8.45775 4.81144 8.84346 4.43694 9.11854 3.96584L6.52785 2.45312ZM6.51406 2.46345C6.51275 2.46419 6.50941 2.46612 6.49965 2.46854C6.4891 2.47116 6.46419 2.47596 6.42004 2.47596V5.47596C6.95952 5.47596 7.49538 5.35425 7.98789 5.07646L6.51406 2.46345ZM6.42004 2.47596C6.34268 2.47596 6.32203 2.46121 6.32138 2.46084L4.85682 5.07906C5.34723 5.35338 5.88054 5.47596 6.42004 5.47596V2.47596ZM6.32602 2.46345C6.31136 2.45518 6.30636 2.45021 6.30583 2.44969C6.30516 2.44905 6.30433 2.44817 6.30314 2.44667C6.30193 2.44514 6.29963 2.44205 6.29642 2.43671L3.72517 3.98224C4.00282 4.44416 4.38601 4.81352 4.85219 5.07646L6.32602 2.46345ZM6.30413 2.44968C6.3041 2.44964 6.30423 2.44985 6.30445 2.4503C6.30467 2.45074 6.3049 2.45124 6.30511 2.45174C6.30559 2.45291 6.30554 2.45305 6.30515 2.45156C6.30456 2.44928 6.30078 2.434 6.30078 2.40058H3.30078C3.30078 2.94421 3.43026 3.4804 3.71747 3.96928L6.30413 2.44968ZM6.30078 2.40058C6.30078 2.36711 6.30457 2.35259 6.3048 2.35169C6.30501 2.35089 6.30479 2.3519 6.30389 2.35405C6.30299 2.35622 6.302 2.35811 6.30129 2.35932L3.7203 0.830101C3.43023 1.31967 3.30078 1.85711 3.30078 2.40058H6.30078ZM6.29931 2.36265C6.30271 2.35695 6.30514 2.35367 6.30636 2.35211C6.30756 2.35058 6.3083 2.34983 6.30873 2.34941C6.30915 2.34899 6.31021 2.348 6.31242 2.34635C6.31465 2.34469 6.31894 2.3417 6.32602 2.33771L4.85219 -0.275297C4.38287 -0.0105843 3.9992 0.36214 3.72228 0.826771L6.29931 2.36265ZM6.32135 2.34033C6.32154 2.34023 6.32168 2.34015 6.32178 2.3401L4.8724 -0.286557C4.86717 -0.283669 4.86199 -0.28079 4.85686 -0.277921L6.32135 2.34033ZM4.19837 2.3252C4.56259 2.3252 4.87749 2.37398 5.15228 2.4593L6.0419 -0.405762C5.45112 -0.589202 4.83353 -0.674805 4.19837 -0.674805V2.3252ZM2.76458 2.66382C3.15838 2.44811 3.62438 2.3252 4.19837 2.3252V-0.674805C3.17298 -0.674805 2.2027 -0.449002 1.3233 0.0327207L2.76458 2.66382ZM1.82588 3.55887C2.05581 3.18106 2.36214 2.88613 2.76919 2.66129L1.31869 0.0352543C0.46308 0.507854 -0.230206 1.16677 -0.73683 1.99922L1.82588 3.55887ZM1.5 4.8252C1.5 4.30947 1.61918 3.90052 1.82791 3.55552L-0.738859 2.00256C-1.25616 2.85756 -1.5 3.81272 -1.5 4.8252H1.5ZM1.83082 6.10739C1.61916 5.75457 1.5 5.34077 1.5 4.8252H-1.5C-1.5 5.83782 -1.25615 6.79326 -0.741771 7.65069L1.83082 6.10739ZM2.76919 6.9891C2.35899 6.76253 2.05214 6.46782 1.82292 6.09437L-0.733868 7.66371C-0.226538 8.49026 0.466225 9.14427 1.31869 9.61514L2.76919 6.9891Z" fill="#11DBA2" mask="url(#path-1-inside-1_117_25468)"/>
</svg>
