<svg width="25" height="25" viewBox="0 0 25 25" fill="none" xmlns="http://www.w3.org/2000/svg">
<path d="M9.343 0.755005C11.7072 0.755005 13.9746 1.69419 15.6463 3.36594C17.3181 5.03769 18.2573 7.30508 18.2573 9.66929C18.2573 11.8773 17.4481 13.907 16.1179 15.4704L16.4881 15.8407H17.5716L24.4287 22.6979L22.3716 24.755L15.5144 17.8979V16.8144L15.1441 16.4441C13.5807 17.7744 11.551 18.5836 9.343 18.5836C6.97878 18.5836 4.7114 17.6444 3.03964 15.9726C1.36789 14.3009 0.428711 12.0335 0.428711 9.66929C0.428711 7.30508 1.36789 5.03769 3.03964 3.36594C4.7114 1.69419 6.97878 0.755005 9.343 0.755005ZM9.343 3.49786C5.91443 3.49786 3.17157 6.24072 3.17157 9.66929C3.17157 13.0979 5.91443 15.8407 9.343 15.8407C12.7716 15.8407 15.5144 13.0979 15.5144 9.66929C15.5144 6.24072 12.7716 3.49786 9.343 3.49786Z" fill="#8D8888"/>
</svg>
