<svg width="24" height="25" viewBox="0 0 24 25" fill="none" xmlns="http://www.w3.org/2000/svg">
<path d="M1.26316 25C0.928148 25 0.606859 24.8683 0.369971 24.6339C0.133083 24.3995 0 24.0815 0 23.75V1.25C0 0.918479 0.133083 0.600537 0.369971 0.366116C0.606859 0.131696 0.928148 0 1.26316 0H18.9474C19.2824 0 19.6037 0.131696 19.8406 0.366116C20.0774 0.600537 20.2105 0.918479 20.2105 1.25V5H17.6842V2.5H2.52632V22.5H17.6842V20H20.2105V23.75C20.2105 24.0815 20.0774 24.3995 19.8406 24.6339C19.6037 24.8683 19.2824 25 18.9474 25H1.26316ZM17.6842 17.5V13.75H8.84211V11.25H17.6842V7.5L24 12.5L17.6842 17.5Z" fill="black"/>
</svg>
