<svg width="21" height="25" viewBox="0 0 21 25" fill="none" xmlns="http://www.w3.org/2000/svg">
<path d="M9.13192 15.1163V17.4419C7.31547 17.4419 5.57342 18.1769 4.28899 19.4853C3.00456 20.7937 2.28298 22.5683 2.28298 24.4186H0C0 21.9515 0.962111 19.5854 2.67468 17.8409C4.38725 16.0963 6.70999 15.1163 9.13192 15.1163ZM9.13192 13.9535C5.34788 13.9535 2.28298 10.8314 2.28298 6.97674C2.28298 3.12209 5.34788 0 9.13192 0C12.916 0 15.9809 3.12209 15.9809 6.97674C15.9809 10.8314 12.916 13.9535 9.13192 13.9535ZM9.13192 11.6279C11.6546 11.6279 13.6979 9.54651 13.6979 6.97674C13.6979 4.40698 11.6546 2.32558 9.13192 2.32558C6.60923 2.32558 4.56596 4.40698 4.56596 6.97674C4.56596 9.54651 6.60923 11.6279 9.13192 11.6279ZM12.0941 20.7105C11.9491 20.0905 11.9491 19.4444 12.0941 18.8244L10.9617 18.1581L12.1032 16.1442L13.2356 16.8105C13.6902 16.3721 14.2395 16.0487 14.8394 15.8663V14.5349H17.1224V15.8663C17.7296 16.05 18.2775 16.3779 18.7262 16.8105L19.8585 16.1442L21 18.1581L19.8688 18.8244C20.0138 19.4444 20.0138 20.0905 19.8688 20.7105L21 21.3767L19.8585 23.3907L18.7262 22.7244C18.2716 23.1628 17.7222 23.4862 17.1224 23.6686V25H14.8394V23.6686C14.2395 23.4862 13.6902 23.1628 13.2356 22.7244L12.1032 23.3907L10.9617 21.3767L12.0941 20.7105ZM15.9809 21.5116C16.435 21.5116 16.8705 21.3279 17.1916 21.0008C17.5127 20.6737 17.6931 20.23 17.6931 19.7674C17.6931 19.3049 17.5127 18.8612 17.1916 18.5341C16.8705 18.207 16.435 18.0233 15.9809 18.0233C15.5268 18.0233 15.0912 18.207 14.7701 18.5341C14.449 18.8612 14.2686 19.3049 14.2686 19.7674C14.2686 20.23 14.449 20.6737 14.7701 21.0008C15.0912 21.3279 15.5268 21.5116 15.9809 21.5116Z" fill="black"/>
</svg>
