<svg width="164" height="45" viewBox="0 0 164 45" fill="none" xmlns="http://www.w3.org/2000/svg">
<mask id="path-1-inside-1_143_12373" fill="white">
<path fill-rule="evenodd" clip-rule="evenodd" d="M99.7335 32.2867C101.405 33.2021 103.29 33.6598 105.389 33.6598C107.502 33.6598 109.387 33.2021 111.044 32.2867C112.701 31.3713 114 30.1261 114.939 28.5511C115.892 26.9626 116.368 25.1655 116.368 23.1598C116.368 21.4115 116.006 19.8269 115.282 18.4059C115.211 18.5825 115.127 18.7534 115.03 18.9185C114.667 19.5388 114.167 20.0292 113.528 20.3897C112.888 20.7503 112.161 20.9305 111.346 20.9305C110.537 20.9305 109.81 20.7503 109.165 20.3897C108.526 20.0292 108.02 19.5388 107.647 18.9185C107.28 18.2929 107.096 17.5851 107.096 16.7951C107.096 16.0052 107.28 15.3 107.647 14.6797C108.015 14.062 108.513 13.5735 109.141 13.2142C107.982 12.8446 106.732 12.6598 105.389 12.6598C103.29 12.6598 101.405 13.1175 99.7335 14.0328C98.0763 14.9482 96.7643 16.2001 95.7975 17.7886C94.8446 19.3636 94.3682 21.154 94.3682 23.1598C94.3682 25.1655 94.8446 26.9626 95.7975 28.5511C96.7643 30.1261 98.0763 31.3713 99.7335 32.2867Z"/>
</mask>
<path d="M99.7335 32.2867L97.7995 35.7881L97.8118 35.7948L99.7335 32.2867ZM111.044 32.2867L109.11 28.7853L109.11 28.7853L111.044 32.2867ZM114.939 28.5511L111.509 26.4934L111.503 26.5026L114.939 28.5511ZM115.282 18.4059L118.846 16.5902L114.863 8.77183L111.574 16.9064L115.282 18.4059ZM115.03 18.9185L111.581 16.8924L111.575 16.9015L115.03 18.9185ZM113.528 20.3897L115.493 23.8738L115.493 23.8738L113.528 20.3897ZM109.165 20.3897L107.2 23.8738L107.206 23.8772L107.212 23.8807L109.165 20.3897ZM107.647 18.9185L104.198 20.9446L104.208 20.962L104.219 20.9792L107.647 18.9185ZM107.647 14.6797L104.211 12.6319L104.206 12.6408L107.647 14.6797ZM109.141 13.2142L111.128 16.686L119.023 12.168L110.357 9.40346L109.141 13.2142ZM99.7335 14.0328L97.8118 10.5247L97.7995 10.5315L99.7335 14.0328ZM95.7975 17.7886L92.3806 15.7091L92.3752 15.718L95.7975 17.7886ZM95.7975 28.5511L92.3674 30.6088L92.3779 30.6263L92.3885 30.6436L95.7975 28.5511ZM105.389 29.6598C103.892 29.6598 102.679 29.3393 101.655 28.7785L97.8118 35.7948C100.13 37.0649 102.688 37.6598 105.389 37.6598V29.6598ZM109.11 28.7853C108.111 29.337 106.905 29.6598 105.389 29.6598V37.6598C108.098 37.6598 110.663 37.0671 112.978 35.7881L109.11 28.7853ZM111.503 26.5026C110.939 27.4485 110.168 28.201 109.11 28.7853L112.978 35.7881C115.235 34.5416 117.06 32.8037 118.374 30.5996L111.503 26.5026ZM112.368 23.1598C112.368 24.5028 112.058 25.5777 111.509 26.4934L118.369 30.6088C119.725 28.3476 120.368 25.8283 120.368 23.1598H112.368ZM111.718 20.2217C112.129 21.0277 112.368 21.9809 112.368 23.1598H120.368C120.368 20.8422 119.884 18.6262 118.846 16.5902L111.718 20.2217ZM111.574 16.9064C111.576 16.9004 111.579 16.8953 111.581 16.8924L118.479 20.9446C118.674 20.6114 118.845 20.2646 118.991 19.9054L111.574 16.9064ZM111.575 16.9015C111.572 16.9078 111.571 16.9085 111.573 16.9054C111.576 16.9022 111.579 16.898 111.584 16.8939C111.588 16.8899 111.59 16.8884 111.588 16.8897C111.586 16.8909 111.579 16.8966 111.562 16.9057L115.493 23.8738C116.736 23.1728 117.756 22.1819 118.484 20.9355L111.575 16.9015ZM111.562 16.9057C111.562 16.9062 111.561 16.9065 111.56 16.9071C111.558 16.9077 111.552 16.9099 111.54 16.9129C111.518 16.9184 111.458 16.9305 111.346 16.9305V24.9305C112.772 24.9305 114.189 24.6088 115.493 23.8738L111.562 16.9057ZM111.346 16.9305C111.24 16.9305 111.181 16.9189 111.156 16.9129C111.134 16.9073 111.125 16.9025 111.118 16.8988L107.212 23.8807C108.51 24.6065 109.921 24.9305 111.346 24.9305V16.9305ZM111.13 16.9057C111.112 16.8955 111.101 16.8881 111.096 16.8843C111.094 16.8824 111.092 16.881 111.091 16.8803C111.09 16.8796 111.09 16.8792 111.09 16.8792C111.09 16.8791 111.09 16.8791 111.09 16.879C111.09 16.8789 111.089 16.8784 111.089 16.8773C111.087 16.8755 111.083 16.8696 111.075 16.8578L104.219 20.9792C104.953 22.2011 105.967 23.1783 107.2 23.8738L111.13 16.9057ZM111.096 16.8924C111.098 16.895 111.1 16.8998 111.102 16.9056C111.105 16.9113 111.106 16.9144 111.105 16.9133C111.105 16.9128 111.096 16.878 111.096 16.7951H103.096C103.096 18.2323 103.438 19.6509 104.198 20.9446L111.096 16.8924ZM111.096 16.7951C111.096 16.7122 111.105 16.6794 111.104 16.6826C111.104 16.6832 111.103 16.6886 111.099 16.697C111.096 16.7054 111.092 16.713 111.088 16.7187L104.206 12.6408C103.438 13.9365 103.096 15.3584 103.096 16.7951H111.096ZM111.083 16.7276C111.091 16.715 111.095 16.7086 111.097 16.7066C111.099 16.7047 111.099 16.7047 111.098 16.7056C111.097 16.7064 111.098 16.7057 111.101 16.7032C111.104 16.7007 111.113 16.6947 111.128 16.686L107.154 9.74253C105.933 10.4417 104.934 11.4191 104.211 12.6319L111.083 16.7276ZM105.389 16.6598C106.362 16.6598 107.198 16.7931 107.925 17.025L110.357 9.40346C108.766 8.89611 107.102 8.65976 105.389 8.65976V16.6598ZM101.655 17.541C102.679 16.9803 103.892 16.6598 105.389 16.6598V8.65976C102.688 8.65976 100.13 9.25464 97.8118 10.5247L101.655 17.541ZM99.2145 19.8681C99.8123 18.8859 100.608 18.1193 101.668 17.5342L97.7995 10.5315C95.5442 11.7772 93.7162 13.5144 92.3806 15.7091L99.2145 19.8681ZM98.3682 23.1598C98.3682 21.8163 98.6784 20.7542 99.2199 19.8592L92.3752 15.718C91.0108 17.973 90.3682 20.4917 90.3682 23.1598H98.3682ZM99.2277 26.4934C98.6784 25.5777 98.3682 24.5028 98.3682 23.1598H90.3682C90.3682 25.8283 91.0109 28.3476 92.3674 30.6088L99.2277 26.4934ZM101.668 28.7853C100.6 28.1956 99.8025 27.4295 99.2066 26.4586L92.3885 30.6436C93.726 32.8227 95.5526 34.547 97.7995 35.7881L101.668 28.7853Z" fill="#11DBA2" mask="url(#path-1-inside-1_143_12373)"/>
<path d="M7.39583 34.2848C6.07639 34.2848 4.72222 34.0648 3.33333 33.625C1.94444 33.1621 0.833333 32.5139 0 31.6806L1.38889 26.4028C2.06019 27.375 2.96296 28.2084 4.09722 28.9028C5.25463 29.5741 6.44676 29.9097 7.67361 29.9097C8.59954 29.9097 9.27083 29.7246 9.6875 29.3542C10.1273 28.9607 10.3472 28.4861 10.3472 27.9306C10.3472 27.3056 10.1273 26.8542 9.6875 26.5764C9.24769 26.2755 8.80787 26.044 8.36806 25.882L5.48611 24.8056C4.88426 24.551 4.17824 24.2153 3.36806 23.7986C2.55787 23.3588 1.85185 22.7454 1.25 21.9584C0.671296 21.1482 0.381945 20.0949 0.381945 18.7986C0.381945 17.6181 0.671296 16.5301 1.25 15.5347C1.8287 14.5394 2.66204 13.7408 3.75 13.1389C4.86111 12.5139 6.19213 12.2014 7.74306 12.2014C9.13194 12.2014 10.4514 12.4445 11.7014 12.9306C12.9745 13.3935 13.9352 13.9722 14.5833 14.6667L13.2986 19.8056C12.5579 18.7871 11.6667 18 10.625 17.4445C9.58333 16.8658 8.57639 16.5764 7.60417 16.5764C6.79398 16.5764 6.19213 16.7616 5.79861 17.132C5.40509 17.4792 5.20833 17.8959 5.20833 18.382C5.20833 18.7523 5.34722 19.0996 5.625 19.4236C5.90278 19.7477 6.35417 20.0255 6.97917 20.257L9.6875 21.2986C10.4051 21.5533 11.1921 21.9121 12.0486 22.375C12.9051 22.8148 13.6343 23.4398 14.2361 24.25C14.8611 25.0602 15.1736 26.1713 15.1736 27.5834C15.1736 29.5741 14.4444 31.1945 12.9861 32.4445C11.5509 33.6713 9.6875 34.2848 7.39583 34.2848Z" fill="black"/>
<path d="M17.1504 33.6598V12.8264H22.0462V15.3959C22.8101 14.3542 23.7476 13.5672 24.8587 13.0347C25.9698 12.4792 27.1735 12.2014 28.4698 12.2014C29.9513 12.2014 31.3286 12.5602 32.6018 13.2778C33.8981 13.9954 34.9397 15.0371 35.7268 16.4028C36.5138 17.7454 36.9073 19.3889 36.9073 21.3334V33.6598H31.4559V22.0625C31.4559 20.7662 31.074 19.6204 30.3101 18.625C29.5462 17.6297 28.4583 17.132 27.0462 17.132C25.8888 17.132 24.8587 17.5371 23.9559 18.3472C23.0532 19.1343 22.6018 20.338 22.6018 21.9584V33.6598H17.1504Z" fill="black"/>
<path d="M48.8494 34.1459C46.9512 34.1459 45.2151 33.6597 43.6411 32.6875C42.067 31.6922 40.8054 30.3727 39.8563 28.7292C38.9304 27.0625 38.4674 25.2338 38.4674 23.2431C38.4674 21.2523 38.9304 19.4352 39.8563 17.7917C40.8054 16.125 42.067 14.8056 43.6411 13.8334C45.2151 12.838 46.9512 12.3403 48.8494 12.3403C50.2151 12.3403 51.4767 12.5834 52.6341 13.0695C53.7915 13.5556 54.7753 14.2385 55.5855 15.1181V12.8264H60.3424V33.6598H55.5855V31.3681C54.7753 32.2246 53.7915 32.9074 52.6341 33.4167C51.4767 33.9028 50.2151 34.1459 48.8494 34.1459ZM49.5091 29.3195C50.6202 29.3195 51.6156 29.0417 52.4952 28.4861C53.398 27.9306 54.1156 27.2014 54.648 26.2986C55.1804 25.3727 55.4466 24.3542 55.4466 23.2431C55.4466 22.132 55.1804 21.125 54.648 20.2222C54.1156 19.2963 53.398 18.5556 52.4952 18C51.6156 17.4445 50.6318 17.1667 49.5438 17.1667C48.4327 17.1667 47.4258 17.4445 46.523 18C45.6434 18.5556 44.9374 19.2963 44.4049 20.2222C43.8725 21.125 43.6063 22.132 43.6063 23.2431C43.6063 24.3542 43.8725 25.3727 44.4049 26.2986C44.9374 27.2014 45.6434 27.9306 46.523 28.4861C47.4258 29.0417 48.4212 29.3195 49.5091 29.3195Z" fill="black"/>
<path d="M63.4922 44.0764V12.8264H68.2491V15.0486C69.0825 14.2153 70.0663 13.5556 71.2005 13.0695C72.3579 12.5834 73.6079 12.3403 74.9505 12.3403C76.895 12.3403 78.6542 12.838 80.2283 13.8334C81.8024 14.8056 83.0524 16.1135 83.9783 17.757C84.9274 19.4005 85.4019 21.2292 85.4019 23.2431C85.4019 25.2338 84.9274 27.0625 83.9783 28.7292C83.0524 30.3727 81.8024 31.6922 80.2283 32.6875C78.6542 33.6597 76.895 34.1459 74.9505 34.1459C73.77 34.1459 72.6704 33.9607 71.6519 33.5903C70.6565 33.2199 69.7538 32.7107 68.9436 32.0625V44.0764H63.4922ZM74.2908 29.3195C75.4019 29.3195 76.3973 29.0417 77.2769 28.4861C78.1797 27.9306 78.8973 27.2014 79.4297 26.2986C79.9621 25.3727 80.2283 24.3542 80.2283 23.2431C80.2283 22.132 79.9621 21.125 79.4297 20.2222C78.8973 19.2963 78.1797 18.5556 77.2769 18C76.3973 17.4445 75.4135 17.1667 74.3255 17.1667C73.2144 17.1667 72.2075 17.4445 71.3047 18C70.4251 18.5556 69.719 19.2963 69.1866 20.2222C68.6542 21.125 68.388 22.132 68.388 23.2431C68.388 24.3542 68.6542 25.3727 69.1866 26.2986C69.719 27.2014 70.4251 27.9306 71.3047 28.4861C72.2075 29.0417 73.2028 29.3195 74.2908 29.3195Z" fill="black"/>
<path d="M87.4058 33.6598V0.326416H92.8572V33.6598H87.4058Z" fill="black"/>
<path d="M128.447 34.1459C126.549 34.1459 124.813 33.6597 123.239 32.6875C121.665 31.6922 120.403 30.3727 119.454 28.7292C118.528 27.0625 118.065 25.2338 118.065 23.2431C118.065 21.2523 118.528 19.4352 119.454 17.7917C120.403 16.125 121.665 14.8056 123.239 13.8334C124.813 12.838 126.549 12.3403 128.447 12.3403C129.813 12.3403 131.074 12.5834 132.232 13.0695C133.389 13.5556 134.373 14.2385 135.183 15.1181V12.8264H139.94V33.6598H135.183V31.3681C134.373 32.2246 133.389 32.9074 132.232 33.4167C131.074 33.9028 129.813 34.1459 128.447 34.1459ZM129.107 29.3195C130.218 29.3195 131.213 29.0417 132.093 28.4861C132.996 27.9306 133.713 27.2014 134.246 26.2986C134.778 25.3727 135.044 24.3542 135.044 23.2431C135.044 22.132 134.778 21.125 134.246 20.2222C133.713 19.2963 132.996 18.5556 132.093 18C131.213 17.4445 130.229 17.1667 129.141 17.1667C128.03 17.1667 127.023 17.4445 126.121 18C125.241 18.5556 124.535 19.2963 124.003 20.2222C123.47 21.125 123.204 22.132 123.204 23.2431C123.204 24.3542 123.47 25.3727 124.003 26.2986C124.535 27.2014 125.241 27.9306 126.121 28.4861C127.023 29.0417 128.019 29.3195 129.107 29.3195Z" fill="black"/>
<path d="M152.361 34.1459C150.439 34.1459 148.692 33.6597 147.118 32.6875C145.544 31.6922 144.282 30.3727 143.333 28.7292C142.407 27.0625 141.944 25.2338 141.944 23.2431C141.944 21.2523 142.407 19.4352 143.333 17.7917C144.282 16.125 145.544 14.8056 147.118 13.8334C148.692 12.838 150.439 12.3403 152.361 12.3403C153.541 12.3403 154.629 12.5255 155.625 12.8959C156.643 13.2662 157.557 13.7755 158.368 14.4236V0.326416H163.819V33.6598H159.062V31.4375C158.252 32.2709 157.268 32.9306 156.111 33.4167C154.953 33.9028 153.703 34.1459 152.361 34.1459ZM152.986 29.3195C154.097 29.3195 155.092 29.0417 155.972 28.4861C156.875 27.9306 157.592 27.2014 158.125 26.2986C158.657 25.3727 158.923 24.3542 158.923 23.2431C158.923 22.132 158.657 21.125 158.125 20.2222C157.592 19.2963 156.875 18.5556 155.972 18C155.092 17.4445 154.108 17.1667 153.02 17.1667C151.909 17.1667 150.902 17.4445 150 18C149.12 18.5556 148.414 19.2963 147.882 20.2222C147.349 21.125 147.083 22.132 147.083 23.2431C147.083 24.3542 147.349 25.3727 147.882 26.2986C148.414 27.2014 149.12 27.9306 150 28.4861C150.902 29.0417 151.898 29.3195 152.986 29.3195Z" fill="black"/>
</svg>
