<svg width="25" height="25" viewBox="0 0 25 25" fill="none" xmlns="http://www.w3.org/2000/svg">
<path d="M12.5 11.25C14.1576 11.25 15.7473 11.9085 16.9194 13.0806C18.0915 14.2527 18.75 15.8424 18.75 17.5V25H16.25V17.5C16.2501 16.5435 15.8846 15.6231 15.2284 14.9272C14.5722 14.2312 13.6749 13.8124 12.72 13.7563L12.5 13.75C11.5435 13.7499 10.6231 14.1154 9.92717 14.7716C9.23124 15.4278 8.81237 16.3251 8.75625 17.28L8.75 17.5V25H6.25V17.5C6.25 15.8424 6.90848 14.2527 8.08058 13.0806C9.25268 11.9085 10.8424 11.25 12.5 11.25ZM4.375 15C4.725 15.0008 5.0625 15.04 5.3875 15.1175C5.17456 15.754 5.04801 16.4161 5.01125 17.0862L5 17.5V17.6075C4.85629 17.5562 4.70685 17.5226 4.555 17.5075L4.375 17.5C3.90909 17.5 3.45987 17.6734 3.11487 17.9866C2.76986 18.2997 2.55379 18.73 2.50875 19.1937L2.5 19.375V25H0V19.375C0 18.2147 0.460936 17.1019 1.28141 16.2814C2.10188 15.4609 3.21468 15 4.375 15ZM20.625 15C21.7853 15 22.8981 15.4609 23.7186 16.2814C24.5391 17.1019 25 18.2147 25 19.375V25H22.5V19.375C22.5 18.9091 22.3266 18.4599 22.0134 18.1149C21.7003 17.7699 21.27 17.5538 20.8062 17.5087L20.625 17.5C20.405 17.5008 20.1967 17.5362 20 17.6062V17.5C20 16.6675 19.865 15.8675 19.615 15.12C19.9375 15.0412 20.2775 15 20.625 15ZM4.375 7.5C5.2038 7.5 5.99866 7.82924 6.58471 8.41529C7.17076 9.00134 7.5 9.7962 7.5 10.625C7.5 11.4538 7.17076 12.2487 6.58471 12.8347C5.99866 13.4208 5.2038 13.75 4.375 13.75C3.5462 13.75 2.75134 13.4208 2.16529 12.8347C1.57924 12.2487 1.25 11.4538 1.25 10.625C1.25 9.7962 1.57924 9.00134 2.16529 8.41529C2.75134 7.82924 3.5462 7.5 4.375 7.5ZM20.625 7.5C21.4538 7.5 22.2487 7.82924 22.8347 8.41529C23.4208 9.00134 23.75 9.7962 23.75 10.625C23.75 11.4538 23.4208 12.2487 22.8347 12.8347C22.2487 13.4208 21.4538 13.75 20.625 13.75C19.7962 13.75 19.0013 13.4208 18.4153 12.8347C17.8292 12.2487 17.5 11.4538 17.5 10.625C17.5 9.7962 17.8292 9.00134 18.4153 8.41529C19.0013 7.82924 19.7962 7.5 20.625 7.5ZM4.375 10C4.20924 10 4.05027 10.0658 3.93306 10.1831C3.81585 10.3003 3.75 10.4592 3.75 10.625C3.75 10.7908 3.81585 10.9497 3.93306 11.0669C4.05027 11.1842 4.20924 11.25 4.375 11.25C4.54076 11.25 4.69973 11.1842 4.81694 11.0669C4.93415 10.9497 5 10.7908 5 10.625C5 10.4592 4.93415 10.3003 4.81694 10.1831C4.69973 10.0658 4.54076 10 4.375 10ZM20.625 10C20.4592 10 20.3003 10.0658 20.1831 10.1831C20.0658 10.3003 20 10.4592 20 10.625C20 10.7908 20.0658 10.9497 20.1831 11.0669C20.3003 11.1842 20.4592 11.25 20.625 11.25C20.7908 11.25 20.9497 11.1842 21.0669 11.0669C21.1842 10.9497 21.25 10.7908 21.25 10.625C21.25 10.4592 21.1842 10.3003 21.0669 10.1831C20.9497 10.0658 20.7908 10 20.625 10ZM12.5 0C13.8261 0 15.0979 0.526784 16.0355 1.46447C16.9732 2.40215 17.5 3.67392 17.5 5C17.5 6.32608 16.9732 7.59785 16.0355 8.53553C15.0979 9.47322 13.8261 10 12.5 10C11.1739 10 9.90215 9.47322 8.96447 8.53553C8.02678 7.59785 7.5 6.32608 7.5 5C7.5 3.67392 8.02678 2.40215 8.96447 1.46447C9.90215 0.526784 11.1739 0 12.5 0ZM12.5 2.5C11.837 2.5 11.2011 2.76339 10.7322 3.23223C10.2634 3.70107 10 4.33696 10 5C10 5.66304 10.2634 6.29893 10.7322 6.76777C11.2011 7.23661 11.837 7.5 12.5 7.5C13.163 7.5 13.7989 7.23661 14.2678 6.76777C14.7366 6.29893 15 5.66304 15 5C15 4.33696 14.7366 3.70107 14.2678 3.23223C13.7989 2.76339 13.163 2.5 12.5 2.5Z" fill="black"/>
</svg>
