<svg width="35" height="34" viewBox="0 0 35 34" fill="none" xmlns="http://www.w3.org/2000/svg">
<mask id="path-1-inside-1_140_4528" fill="white">
<path fill-rule="evenodd" clip-rule="evenodd" d="M8.76852 31.1125C11.3845 32.5228 14.3357 33.2279 17.6219 33.2279C20.9298 33.2279 23.8809 32.5228 26.4753 31.1125C29.0697 29.7022 31.102 27.7838 32.5722 25.3573C34.064 22.9101 34.8099 20.1414 34.8099 17.0512C34.8099 14.0102 34.0875 11.2905 32.6428 8.89223C32.525 9.66792 32.2734 10.3838 31.888 11.0398C31.3411 11.9765 30.585 12.7171 29.6197 13.2615C28.6545 13.8059 27.5566 14.0782 26.3259 14.0782C25.1033 14.0782 24.0053 13.8059 23.0321 13.2615C22.0668 12.7171 21.3027 11.9765 20.7397 11.0398C20.1847 10.0951 19.9072 9.02623 19.9072 7.83331C19.9072 6.64038 20.1847 5.57555 20.7397 4.63883C21.3027 3.69409 22.0668 2.94952 23.0321 2.40509C23.3739 2.21388 23.7311 2.05623 24.1038 1.93218C22.1215 1.22707 19.9609 0.874512 17.6219 0.874512C14.3357 0.874512 11.3845 1.57965 8.76852 2.98993C6.17412 4.4002 4.12022 6.32896 2.60681 8.77621C1.11503 11.2027 0.369141 13.961 0.369141 17.0512C0.369141 20.1414 1.11503 22.9101 2.60681 25.3573C4.12022 27.7838 6.17412 29.7022 8.76852 31.1125Z"/>
</mask>
<path fill-rule="evenodd" clip-rule="evenodd" d="M8.76852 31.1125C11.3845 32.5228 14.3357 33.2279 17.6219 33.2279C20.9298 33.2279 23.8809 32.5228 26.4753 31.1125C29.0697 29.7022 31.102 27.7838 32.5722 25.3573C34.064 22.9101 34.8099 20.1414 34.8099 17.0512C34.8099 14.0102 34.0875 11.2905 32.6428 8.89223C32.525 9.66792 32.2734 10.3838 31.888 11.0398C31.3411 11.9765 30.585 12.7171 29.6197 13.2615C28.6545 13.8059 27.5566 14.0782 26.3259 14.0782C25.1033 14.0782 24.0053 13.8059 23.0321 13.2615C22.0668 12.7171 21.3027 11.9765 20.7397 11.0398C20.1847 10.0951 19.9072 9.02623 19.9072 7.83331C19.9072 6.64038 20.1847 5.57555 20.7397 4.63883C21.3027 3.69409 22.0668 2.94952 23.0321 2.40509C23.3739 2.21388 23.7311 2.05623 24.1038 1.93218C22.1215 1.22707 19.9609 0.874512 17.6219 0.874512C14.3357 0.874512 11.3845 1.57965 8.76852 2.98993C6.17412 4.4002 4.12022 6.32896 2.60681 8.77621C1.11503 11.2027 0.369141 13.961 0.369141 17.0512C0.369141 20.1414 1.11503 22.9101 2.60681 25.3573C4.12022 27.7838 6.17412 29.7022 8.76852 31.1125Z" fill="#D9D9D9"/>
<path d="M8.76852 31.1125L6.3806 35.5054L6.38823 35.5096L6.39587 35.5137L8.76852 31.1125ZM26.4753 31.1125L24.0874 26.7196H24.0874L26.4753 31.1125ZM32.5722 25.3573L28.3028 22.7548L28.2958 22.7664L32.5722 25.3573ZM32.6428 8.89223L36.9257 6.31223L29.7787 -5.55227L27.6994 8.14164L32.6428 8.89223ZM31.888 11.0398L27.5769 8.50713L27.5702 8.51859L31.888 11.0398ZM29.6197 13.2615L32.0761 17.6165L32.0761 17.6165L29.6197 13.2615ZM23.0321 13.2615L20.5757 17.6165L20.5834 17.6209L20.5911 17.6252L23.0321 13.2615ZM20.7397 11.0398L16.4286 13.5725L16.4413 13.5941L16.4542 13.6157L20.7397 11.0398ZM20.7397 4.63883L16.4446 2.07902L16.438 2.09013L20.7397 4.63883ZM23.0321 2.40509L20.5911 -1.9586L20.5834 -1.95427L20.5757 -1.94992L23.0321 2.40509ZM24.1038 1.93218L25.6832 6.67615L39.4623 2.08848L25.7795 -2.77867L24.1038 1.93218ZM8.76852 2.98993L6.39587 -1.41127L6.38823 -1.40715L6.3806 -1.403L8.76852 2.98993ZM2.60681 8.77621L-1.64574 6.14638L-1.65261 6.15757L2.60681 8.77621ZM2.60681 25.3573L-1.66251 27.9598L-1.6492 27.9816L-1.63566 28.0033L2.60681 25.3573ZM17.6219 28.2279C15.0746 28.2279 12.9533 27.6882 11.1412 26.7113L6.39587 35.5137C9.81575 37.3573 13.5967 38.2279 17.6219 38.2279V28.2279ZM24.0874 26.7196C22.3105 27.6855 20.1976 28.2279 17.6219 28.2279V38.2279C21.662 38.2279 25.4514 37.3601 28.8633 35.5054L24.0874 26.7196ZM28.2958 22.7664C27.3037 24.404 25.937 25.7141 24.0874 26.7196L28.8633 35.5054C32.2024 33.6903 34.9004 31.1637 36.8485 27.9483L28.2958 22.7664ZM29.8099 17.0512C29.8099 19.2978 29.2794 21.1528 28.3029 22.7548L36.8415 27.9598C38.8485 24.6673 39.8099 20.985 39.8099 17.0512H29.8099ZM28.3598 11.4722C29.2953 13.0251 29.8099 14.8383 29.8099 17.0512H39.8099C39.8099 13.182 38.8797 9.55595 36.9257 6.31223L28.3598 11.4722ZM27.6994 8.14164C27.6741 8.30853 27.63 8.41673 27.5769 8.50714L36.1991 13.5725C36.9168 12.3508 37.3759 11.0273 37.5861 9.64281L27.6994 8.14164ZM27.5702 8.51859C27.4802 8.67268 27.374 8.78767 27.1634 8.90651L32.0761 17.6165C33.7959 16.6465 35.2019 15.2804 36.2058 13.561L27.5702 8.51859ZM27.1634 8.9065C27.0282 8.98276 26.7932 9.07815 26.3259 9.07815V19.0782C28.32 19.0782 30.2809 18.6291 32.0761 17.6165L27.1634 8.9065ZM26.3259 9.07815C25.8735 9.07815 25.63 8.98566 25.473 8.89783L20.5911 17.6252C22.3807 18.6262 24.3331 19.0782 26.3259 19.0782V9.07815ZM25.4885 8.90651C25.2655 8.78074 25.1361 8.64862 25.0251 8.46391L16.4542 13.6157C17.4693 15.3044 18.8682 16.6535 20.5757 17.6165L25.4885 8.90651ZM25.0508 8.50713C24.9864 8.39759 24.9072 8.21726 24.9072 7.83331H14.9072C14.9072 9.83521 15.3829 11.7925 16.4286 13.5725L25.0508 8.50713ZM24.9072 7.83331C24.9072 7.4488 24.9865 7.28003 25.0413 7.18753L16.438 2.09013C15.3828 3.87108 14.9072 5.83196 14.9072 7.83331H24.9072ZM25.0347 7.19862C25.1482 7.00824 25.276 6.87996 25.4885 6.76011L20.5757 -1.94992C18.8577 -0.980928 17.4572 0.379951 16.4446 2.07903L25.0347 7.19862ZM25.473 6.76879C25.5396 6.73154 25.6083 6.70108 25.6832 6.67615L22.5243 -2.81179C21.854 -2.58861 21.2082 -2.30379 20.5911 -1.9586L25.473 6.76879ZM17.6219 5.87451C19.4533 5.87451 21.0404 6.14942 22.4281 6.64302L25.7795 -2.77867C23.2026 -3.69528 20.4685 -4.12549 17.6219 -4.12549V5.87451ZM11.1412 7.39112C12.9533 6.4142 15.0746 5.87451 17.6219 5.87451V-4.12549C13.5967 -4.12549 9.81576 -3.2549 6.39587 -1.41127L11.1412 7.39112ZM6.85935 11.406C7.90279 9.71874 9.3054 8.38905 11.1564 7.38285L6.3806 -1.403C3.04284 0.411351 0.337647 2.93919 -1.64572 6.14639L6.85935 11.406ZM5.36914 17.0512C5.36914 14.8042 5.8996 12.9672 6.86624 11.3948L-1.65261 6.15757C-3.66954 9.43826 -4.63086 13.1179 -4.63086 17.0512H5.36914ZM6.87614 22.7548C5.89958 21.1528 5.36914 19.2978 5.36914 17.0512H-4.63086C-4.63086 20.985 -3.66952 24.6673 -1.66251 27.9598L6.87614 22.7548ZM11.1564 26.7196C9.29492 25.7077 7.89044 24.3806 6.84929 22.7113L-1.63566 28.0033C0.34999 31.187 3.05332 33.6968 6.3806 35.5054L11.1564 26.7196Z" fill="black" mask="url(#path-1-inside-1_140_4528)"/>
</svg>
