<svg width="24" height="25" viewBox="0 0 24 25" fill="none" xmlns="http://www.w3.org/2000/svg">
<path d="M2.04134 24.5833C1.72087 24.5833 1.41353 24.456 1.18692 24.2294C0.960314 24.0028 0.833008 23.6954 0.833008 23.375V1.62496C0.833008 1.30449 0.960314 0.997145 1.18692 0.770539C1.41353 0.543932 1.72087 0.416626 2.04134 0.416626H18.958C19.2785 0.416626 19.5858 0.543932 19.8124 0.770539C20.039 0.997145 20.1663 1.30449 20.1663 1.62496V5.24996H17.7497V2.83329H3.24967V22.1666H17.7497V19.75H20.1663V23.375C20.1663 23.6954 20.039 24.0028 19.8124 24.2294C19.5858 24.456 19.2785 24.5833 18.958 24.5833H2.04134ZM17.7497 17.3333V13.7083H9.29134V11.2916H17.7497V7.66663L23.7913 12.5L17.7497 17.3333Z" fill="black"/>
</svg>
